<svg xmlns="http://www.w3.org/2000/svg" enable-background="new 0 0 24 24" viewBox="0 0 24 24"><path d="M11.884,0c-0.002,0.019-0.004,0.031-0.005,0.049v0.013h-0.001c-0.002,0.015-0.003,0.025-0.004,0.039v0.015h-0.002c0,0.01-0.002,0.018-0.002,0.026v0.026h-0.003c-0.001,0.008-0.001,0.018-0.003,0.025v0.021h-0.002c0,0.007,0,0.015-0.002,0.021v0.02h-0.002c0,0.01-0.001,0.022-0.002,0.032v0.002c-0.003,0.017-0.006,0.034-0.009,0.05v0.008h-0.002c-0.001,0.004-0.003,0.008-0.003,0.012v0.017h-0.003v0.022h-0.005v0.018h-0.005v0.021h-0.004v0.019H11.82v0.017h-0.006v0.014h-0.004v0.018h-0.004v0.014H11.8v0.013h-0.003v0.015h-0.004c-0.001,0.001-0.001,0.003-0.001,0.004v0.01h-0.003c-0.001,0.002-0.001,0.004-0.001,0.006v0.006h-0.002c-0.001,0.003-0.002,0.008-0.002,0.01c-0.003,0.007-0.007,0.014-0.01,0.021v0.002c-0.002,0.002-0.004,0.005-0.005,0.007v0.008h-0.004v0.008h-0.005v0.008h-0.003v0.01H11.75v0.014h-0.004v0.004h-0.004v0.008h-0.004v0.011h-0.004v0.008h-0.006v0.011h-0.004v0.008h-0.005v0.008h-0.003v0.01H11.71v0.008h-0.004v0.006h-0.004v0.008h-0.006V0.76h-0.004v0.006h-0.005v0.008h-0.004v0.011h-0.005v0.004h-0.003v0.008h-0.006v0.004h-0.004v0.01H11.66v0.004h-0.004v0.008h-0.005v0.006h-0.003l-0.002,0.004v0.004h-0.002c-0.001,0.002-0.002,0.002-0.002,0.004v0.001h-0.001c-0.001,0.003-0.002,0.005-0.004,0.007v0.003h-0.001c-0.005,0.006-0.008,0.012-0.012,0.018v0.001c-0.002,0.002-0.007,0.006-0.009,0.01v0.002h-0.001c-0.001,0.001-0.003,0.002-0.003,0.003v0.003h-0.002l-0.003,0.003v0.001h-0.001c0,0.001-0.002,0.002-0.003,0.004v0.004h-0.003l-0.002,0.002v0.002h-0.002c0,0.002-0.002,0.002-0.002,0.003v0.003h-0.004c0,0.001-0.001,0.002-0.002,0.003V0.92h-0.003v0.004h-0.004V0.93h-0.004v0.008h-0.005V0.93h-0.005v0.004H11.56V0.94h-0.005v0.008H11.55v0.004h-0.004v0.006h-0.004v0.004h-0.004V0.97h-0.006v0.004h-0.004V0.98h-0.005v0.004h-0.004v0.005h-0.005v0.01h-0.002v0.004h-0.006v0.005h-0.004V1.01h-0.004v0.004h-0.005v0.01h-0.004v0.004h-0.005v0.004h-0.004v0.006h-0.005v0.004h-0.005v0.004h-0.004V1.05H11.46v0.01h-0.004v0.005H11.45v0.004h-0.004v0.004H11.44v0.006h-0.004v0.004h-0.005V1.09h-0.004v0.004h-0.006V1.1h-0.002v0.004h-0.004v0.004H11.41v0.004h-0.004v0.006h-0.005v0.004h-0.003c-0.001,0.001-0.001,0.002-0.001,0.002v0.002h-0.002L11.39,1.13c0,0-0.002,0.002-0.004,0.003v0.006h-0.004v0.005h-0.004v0.004h-0.004v0.004h-0.003l-0.003,0.003v0.003h-0.002L11.364,1.16v0.003h-0.002c-0.005,0.006-0.007,0.01-0.014,0.016c-0.002,0.002-0.008,0.007-0.012,0.01c-0.012,0.008-0.028,0.021-0.04,0.032c-0.008,0.005-0.016,0.012-0.022,0.017v0.001h-0.001c-0.016,0.013-0.032,0.025-0.05,0.039v0.001c-0.024,0.02-0.048,0.039-0.076,0.062V1.34h-0.002c-0.058,0.047-0.12,0.1-0.19,0.159V1.5h-0.001c-0.173,0.148-0.378,0.338-0.608,0.568l-0.019,0.019c-1.39,1.407-3.581,4.339-3.812,9.077c-0.02,0.392-0.016,0.773,0.006,1.144v0.009c0.111,1.867,0.71,3.461,1.46,4.756v0.001c0.298,0.516,0.62,0.985,0.947,1.405v0.001c1.126,1.455,2.276,2.317,2.57,2.526c0.451,1.023,0.409,2.779,0.409,2.779L12.563,24c0,0-0.134-1.701,0.054-2.522c0.058-0.257,0.196-0.476,0.357-0.662c0.108-0.075,0.429-0.301,0.815-0.645c0.018-0.019,0.029-0.036,0.045-0.054c1.555-1.418,4.459-4.91,3.463-10.599c-1.291-5.56-4.336-7.387-4.663-8.086C12.273,0.939,11.884,0,11.884,0z"/></svg>