<svg xmlns="http://www.w3.org/2000/svg" height="40" width="40"><path d="M16.833 33.75h6.334v-1.458h-6.334Zm-5.041 3.75q-1.084 0-1.854-.771-.771-.771-.771-1.854V5.125q0-1.083.771-1.854.77-.771 1.854-.771h16.416q1.084 0 1.854.771.771.771.771 1.854v29.75q0 1.083-.771 1.854-.77.771-1.854.771Zm-.542-6.875v4.25q0 .208.167.375.166.167.375.167h16.416q.209 0 .375-.167.167-.167.167-.375v-4.25Zm0-2.083h17.5V8.583h-17.5Zm0-22.084h17.5V5.125q0-.208-.167-.375-.166-.167-.375-.167H11.792q-.209 0-.375.167-.167.167-.167.375Zm0 24.167v4.792-.542Zm0-24.167V4.583v1.875Z"/></svg>